<?xml version="1.0" encoding="UTF-8"?>
<svg width="25px" height="25px" viewBox="0 0 25 25" version="1.1" xmlns="http://www.w3.org/2000/svg" xmlns:xlink="http://www.w3.org/1999/xlink">
    <title>形状结合备份</title>
    <g id="视频" stroke="none" stroke-width="1" fill="none" fill-rule="evenodd">
        <path d="M20,14.5789474 C22.209139,14.5789474 24,16.3698084 24,18.5789474 L24,18.7894737 C24,21.1148832 22.1148832,23 19.7894737,23 L10.4713959,23 C8.14598641,23 6.26086957,21.1148832 6.26086957,18.7894737 L6.26086957,18.5789474 C6.26086957,16.3698084 8.05173057,14.5789474 10.2608696,14.5789474 L20,14.5789474 Z M4.57713336,8.26315789 L4.57713336,11.06038 L7.30434783,11.06038 L7.30434783,12.8755724 L4.57713336,12.8755724 L4.57713336,15.6315789 L2.75910837,15.6315789 L2.75910837,12.8755724 L2.43562681e-09,12.8755724 L2.43562681e-09,11.06038 L2.75910837,11.06038 L2.75910837,8.26315789 L4.57713336,8.26315789 Z M15.1304348,3 C17.7247826,3 19.826087,5.11973684 19.826087,7.7368421 C19.826087,10.3539474 17.7247826,12.4736842 15.1304348,12.4736842 C12.536087,12.4736842 10.4347826,10.3539474 10.4347826,7.7368421 C10.4347826,5.11973684 12.536087,3 15.1304348,3 Z" id="形状结合备份" fill="#D1D2D3"></path>
    </g>
</svg>